<?xml version="1.0" encoding="UTF-8" standalone="no" ?>
<!DOCTYPE svg PUBLIC "-//W3C//DTD SVG 1.1//EN" "http://www.w3.org/Graphics/SVG/1.1/DTD/svg11.dtd">
<svg xmlns="http://www.w3.org/2000/svg" xmlns:xlink="http://www.w3.org/1999/xlink" version="1.1" width="1280" height="1024" viewBox="0 0 1280 1024" xml:space="preserve">
<desc>Created with Fabric.js 5.3.0</desc>
<defs>
</defs>
<g transform="matrix(1 0 0 1 640 512)" id="background-logo"  >
<rect style="stroke: none; stroke-width: 0; stroke-dasharray: none; stroke-linecap: butt; stroke-dashoffset: 0; stroke-linejoin: miter; stroke-miterlimit: 4; fill: rgb(255,255,255); fill-opacity: 0; fill-rule: nonzero; opacity: 1;"  paint-order="stroke"  x="-640" y="-512" rx="0" ry="0" width="1280" height="1024" />
</g>
<g transform="matrix(1.9211538461538462 0 0 1.9211538461538462 640 402.84134691609756)" id="logo-logo"  >
<g style=""  paint-order="stroke"   >
		<g transform="matrix(1.167891860536903 0 0 -1.167891860536903 -58.30816902916541 -16.199244051577125)"  >
<linearGradient id="SVGID_50_67432" gradientUnits="userSpaceOnUse" gradientTransform="matrix(-176.45468 -176.45468 -176.45468 176.45468 216.18848 255.56885)"  x1="0" y1="0" x2="1" y2="0">
<stop offset="0%" style="stop-color:rgb(52,184,132);stop-opacity: 1"/>
<stop offset="100%" style="stop-color:rgb(46,189,182);stop-opacity: 1"/>
</linearGradient>
<path style="stroke: none; stroke-width: 1; stroke-dasharray: none; stroke-linecap: butt; stroke-dashoffset: 0; stroke-linejoin: miter; stroke-miterlimit: 4; fill: url(#SVGID_50_67432); fill-rule: nonzero; opacity: 1;"  paint-order="stroke"  transform=" translate(-111.70849999999999, -142.691)" d="M 92.817 188.928 L 86.49699999999999 187.475 L 86.49699999999999 181.001 C 86.49699999999999 157.399 87.90699999999998 138.001 91.38499999999999 121.46300000000001 L 91.38499999999999 121.46300000000001 C 91.84799999999998 119.286 92.33399999999999 117.149 92.88399999999999 115.08000000000001 L 92.88399999999999 115.08000000000001 C 94.42399999999999 109.00400000000002 96.29599999999999 103.34400000000001 98.52099999999999 98.01400000000001 L 98.52099999999999 98.01400000000001 C 99.26799999999999 96.21100000000001 100.06099999999999 94.45100000000001 100.89599999999999 92.70800000000001 L 100.89599999999999 92.70800000000001 C 100.96399999999998 92.55300000000001 101.02899999999998 92.4 101.09599999999999 92.27000000000001 L 101.09599999999999 92.27000000000001 C 106.55599999999998 93.501 112.017 94.51400000000001 117.54399999999998 95.328 L 117.54399999999998 95.328 C 115.95899999999999 98.28 114.52699999999999 101.384 113.20599999999999 104.66300000000001 L 113.20599999999999 104.66300000000001 C 112.457 106.53800000000001 111.75299999999999 108.47300000000001 111.09199999999998 110.45700000000001 L 111.09199999999998 110.45700000000001 C 109.15399999999998 116.289 107.56999999999998 122.65200000000002 106.33699999999999 129.72 L 106.33699999999999 129.72 C 105.91799999999999 132.099 105.52099999999999 134.544 105.19099999999999 137.077 L 105.19099999999999 137.077 C 103.826 147.05 103.05499999999999 158.324 102.81299999999999 171.182 L 102.81299999999999 171.182 L 102.76899999999999 174.131 L 105.69699999999999 174.464 C 112.36999999999999 175.212 121.06599999999999 175.894 129.808 176.422 L 129.808 176.422 C 132.428 181.884 134.80599999999998 187.453 136.92 193.112 L 136.92 193.112 C 120.142 192.233 100.89599999999999 190.777 92.81699999999998 188.928" stroke-linecap="round" />
</g>
		<g transform="matrix(1.167891860536903 0 0 -1.167891860536903 9.953358381425858 73.85339363884191)"  >
<linearGradient id="SVGID_51_67433" gradientUnits="userSpaceOnUse" gradientTransform="matrix(-176.45828 -176.45828 -176.45828 176.45828 283.77441 187.9873)"  x1="0" y1="0" x2="1" y2="0">
<stop offset="0%" style="stop-color:rgb(52,184,132);stop-opacity: 1"/>
<stop offset="100%" style="stop-color:rgb(46,189,182);stop-opacity: 1"/>
</linearGradient>
<path style="stroke: none; stroke-width: 1; stroke-dasharray: none; stroke-linecap: butt; stroke-dashoffset: 0; stroke-linejoin: miter; stroke-miterlimit: 4; fill: url(#SVGID_51_67433); fill-rule: nonzero; opacity: 1;"  paint-order="stroke"  transform=" translate(-170.157, -65.58399999999999)" d="M 206.716 91.059 C 205.725 89.383 204.669 87.752 203.54600000000002 86.17099999999999 L 203.54600000000002 86.17099999999999 C 200.00100000000003 81.148 195.97100000000003 76.52799999999999 191.41400000000002 72.142 L 191.41400000000002 72.142 C 189.78600000000003 70.556 188.068 68.99499999999999 186.28300000000002 67.478 L 186.28300000000002 67.478 C 180.118 62.126 173.096 56.997 165.169 51.712 L 165.169 51.712 L 163.363 50.5 L 161.557 51.712 C 152.355 57.855000000000004 144.361 63.779 137.49099999999999 70.096 L 137.49099999999999 70.096 C 130.79799999999997 69.635 124.14899999999999 68.863 117.54399999999998 67.74000000000001 L 117.54399999999998 67.74000000000001 C 127.958 55.958 141.522 45.215 158.96 33.986 L 158.96 33.986 L 163.363 31.169999999999998 L 167.746 33.986 C 182.959 43.762 195.22400000000002 53.187 205.02100000000002 63.272 L 205.02100000000002 63.272 C 206.473 64.769 207.88400000000001 66.288 209.25000000000003 67.83 L 209.25000000000003 67.83 C 213.16900000000004 72.277 216.64600000000002 76.855 219.70800000000003 81.67999999999999 L 219.70800000000003 81.67999999999999 C 220.72000000000003 83.264 221.66900000000004 84.869 222.59100000000004 86.523 L 222.59100000000004 86.523 C 222.65800000000004 86.61 222.72600000000003 86.696 222.77000000000004 86.80799999999999 L 222.77000000000004 86.80799999999999 C 218.82600000000005 91.079 215.06000000000003 95.48499999999999 211.49600000000004 99.99799999999999 L 211.49600000000004 99.99799999999999 C 210.06500000000003 96.86999999999999 208.48000000000005 93.898 206.71600000000004 91.059" stroke-linecap="round" />
</g>
		<g transform="matrix(1.167891860536903 0 0 -1.167891860536903 45.10339970800504 -30.35642918500548)"  >
<linearGradient id="SVGID_52_67434" gradientUnits="userSpaceOnUse" gradientTransform="matrix(-176.46085 -176.46085 -176.46085 176.46085 258.49805 213.26318)"  x1="0" y1="0" x2="1" y2="0">
<stop offset="0%" style="stop-color:rgb(52,184,132);stop-opacity: 1"/>
<stop offset="100%" style="stop-color:rgb(46,189,182);stop-opacity: 1"/>
</linearGradient>
<path style="stroke: none; stroke-width: 1; stroke-dasharray: none; stroke-linecap: butt; stroke-dashoffset: 0; stroke-linejoin: miter; stroke-miterlimit: 4; fill: url(#SVGID_52_67434); fill-rule: nonzero; opacity: 1;"  paint-order="stroke"  transform=" translate(-200.254, -154.813)" d="M 160.302 177.721 C 161.427 177.76500000000001 162.45999999999998 177.76500000000001 163.363 177.76500000000001 L 163.363 177.76500000000001 C 165.411 177.76500000000001 168.098 177.721 171.223 177.63400000000001 L 171.223 177.63400000000001 C 173.031 177.567 174.967 177.50300000000001 177.037 177.436 L 177.037 177.436 C 182.344 177.215 188.375 176.92700000000002 194.453 176.576 L 194.453 176.576 C 196.45600000000002 176.46699999999998 198.462 176.33499999999998 200.439 176.202 L 200.439 176.202 C 207.971 175.693 215.262 175.101 221.00799999999998 174.464 L 221.00799999999998 174.464 L 223.93699999999998 174.131 L 223.89299999999997 171.182 C 223.628 156.87099999999998 222.70299999999997 144.51899999999998 221.05199999999996 133.731 L 221.05199999999996 133.731 C 225.01499999999996 127.47699999999999 229.32899999999995 121.443 233.97699999999998 115.65299999999999 L 233.97699999999998 115.65299999999999 C 238.44599999999997 133.421 240.206 154.559 240.206 181.00099999999998 L 240.206 181.00099999999998 L 240.206 187.47499999999997 L 233.91 188.92799999999997 C 226.68699999999998 190.58099999999996 210.68099999999998 191.90099999999998 195.401 192.78299999999996 L 195.401 192.78299999999996 C 193.46200000000002 192.91399999999996 191.524 193.00099999999995 189.63000000000002 193.11199999999997 L 189.63000000000002 193.11199999999997 C 183.42300000000003 193.41999999999996 177.54300000000003 193.65999999999997 172.72100000000003 193.81699999999998 L 172.72100000000003 193.81699999999998 C 170.62900000000002 193.88299999999998 168.71300000000002 193.92799999999997 167.06400000000002 193.94499999999996 L 167.06400000000002 193.94499999999996 C 166.73200000000003 193.94499999999996 166.42200000000003 193.97299999999996 166.115 193.97299999999996 L 166.115 193.97299999999996 C 164.376 188.46399999999994 162.43900000000002 183.02899999999997 160.30200000000002 177.72099999999995" stroke-linecap="round" />
</g>
		<g transform="matrix(1.167891860536903 0 0 -1.167891860536903 65.91932028428442 17.538232069682692)"  >
<linearGradient id="SVGID_53_67435" gradientUnits="userSpaceOnUse" gradientTransform="matrix(-176.45251 -176.45251 -176.45251 176.45251 283.98047 187.77588)"  x1="0" y1="0" x2="1" y2="0">
<stop offset="0%" style="stop-color:rgb(52,184,132);stop-opacity: 1"/>
<stop offset="100%" style="stop-color:rgb(46,189,182);stop-opacity: 1"/>
</linearGradient>
<path style="stroke: none; stroke-width: 1; stroke-dasharray: none; stroke-linecap: butt; stroke-dashoffset: 0; stroke-linejoin: miter; stroke-miterlimit: 4; fill: url(#SVGID_53_67435); fill-rule: nonzero; opacity: 1;"  paint-order="stroke"  transform=" translate(-218.07750000000001, -113.80349999999996)" d="M 210.088 110.942 C 211.32 109.199 212.619 107.484 213.941 105.78599999999999 L 213.941 105.78599999999999 C 217.574 101.05499999999999 221.423 96.42899999999999 225.477 91.98199999999999 L 225.477 91.98199999999999 C 226.75300000000001 90.57299999999998 228.053 89.18699999999998 229.373 87.82199999999999 L 229.373 87.82199999999999 C 230.804 86.30299999999998 232.256 84.80599999999998 233.756 83.32999999999998 L 233.756 83.32999999999998 L 230.342 78.00299999999999 C 228.53500000000003 78.68399999999998 226.75300000000001 79.32199999999999 224.92700000000002 79.93999999999998 L 224.92700000000002 79.93999999999998 C 221.97700000000003 75.13699999999999 218.63000000000002 70.53799999999998 214.88700000000003 66.10899999999998 L 214.88700000000003 66.10899999999998 C 223.89300000000003 63.24899999999998 232.69800000000004 59.79099999999998 241.21800000000002 55.74099999999998 L 241.21800000000002 55.74099999999998 C 247.76000000000002 64.48299999999998 253.04500000000002 73.68499999999997 257.358 83.70199999999997 L 257.358 83.70199999999997 C 249.80700000000002 90.08799999999997 242.76 97.00399999999996 236.264 104.35699999999997 L 236.264 104.35699999999997 C 234.857 105.91999999999997 233.49200000000002 107.50699999999998 232.17000000000002 109.11299999999997 L 232.17000000000002 109.11299999999997 C 227.70000000000002 114.46299999999997 223.519 120.01199999999997 219.64100000000002 125.75899999999997 L 219.64100000000002 125.75899999999997 C 218.145 127.95999999999997 216.71400000000003 130.16099999999997 215.348 132.40699999999998 L 215.348 132.40699999999998 C 207.75300000000001 144.564 201.412 157.486 196.45600000000002 170.93899999999996 L 196.45600000000002 170.93899999999996 C 190.37800000000001 171.31299999999996 184.26100000000002 171.61999999999998 178.79700000000003 171.86599999999996 L 178.79700000000003 171.86599999999996 C 186.04300000000003 150.02199999999996 196.56800000000004 129.52399999999994 210.08800000000002 110.94199999999995" stroke-linecap="round" />
</g>
		<g transform="matrix(1.167891860536903 0 0 -1.167891860536903 -34.817192146326136 48.62692945124479)"  >
<linearGradient id="SVGID_54_67436" gradientUnits="userSpaceOnUse" gradientTransform="matrix(-176.4584 -176.4584 -176.4584 176.4584 257.08496 214.67529)"  x1="0" y1="0" x2="1" y2="0">
<stop offset="0%" style="stop-color:rgb(52,184,132);stop-opacity: 1"/>
<stop offset="100%" style="stop-color:rgb(46,189,182);stop-opacity: 1"/>
</linearGradient>
<path style="stroke: none; stroke-width: 1; stroke-dasharray: none; stroke-linecap: butt; stroke-dashoffset: 0; stroke-linejoin: miter; stroke-miterlimit: 4; fill: url(#SVGID_54_67436); fill-rule: nonzero; opacity: 1;"  paint-order="stroke"  transform=" translate(-131.8225, -87.184)" d="M 65.911 92.602 C 69.655 82.031 74.299 72.473 80.068 63.514 L 80.068 63.514 C 89.074 66.794 98.256 69.437 107.57 71.438 L 107.57 71.438 C 109.52999999999999 71.85900000000001 111.488 72.255 113.469 72.607 L 113.469 72.607 C 119.67899999999999 73.775 125.955 74.635 132.273 75.182 L 132.273 75.182 C 134.695 75.428 137.119 75.601 139.561 75.735 L 139.561 75.735 C 143.459 75.953 147.37900000000002 76.062 151.297 76.062 L 151.297 76.062 C 162.417 76.062 173.557 75.16 184.59 73.333 L 184.59 73.333 C 189.607 77.824 193.971 82.47 197.734 87.489 L 197.734 87.489 C 182.517 90.705 166.99800000000002 92.31400000000001 151.32 92.31400000000001 L 151.32 92.31400000000001 C 143.04 92.31400000000001 134.762 91.852 126.55 90.926 L 126.55 90.926 C 124.523 90.705 122.52 90.462 120.538 90.176 L 120.538 90.176 C 114.901 89.406 109.28699999999999 88.417 103.738 87.206 L 103.738 87.206 C 101.93299999999999 86.808 100.127 86.411 98.321 85.947 L 98.321 85.947 C 96.318 85.486 94.314 84.959 92.334 84.431 L 92.334 84.431 L 89.405 90.066 C 91.056 91.434 92.706 92.82000000000001 94.31400000000001 94.227 L 94.31400000000001 94.227 C 92.025 99.471 90.08800000000001 104.977 88.45800000000001 110.854 L 88.45800000000001 110.854 C 81.411 104.27 73.881 98.169 65.911 92.602" stroke-linecap="round" />
</g>
		<g transform="matrix(1.167891860536903 0 0 -1.167891860536903 -14.039228055514002 -48.98780803615068)"  >
<linearGradient id="SVGID_55_67437" gradientUnits="userSpaceOnUse" gradientTransform="matrix(-176.45799 -176.45799 -176.45799 176.45799 217.33398 254.42725)"  x1="0" y1="0" x2="1" y2="0">
<stop offset="0%" style="stop-color:rgb(52,184,132);stop-opacity: 1"/>
<stop offset="100%" style="stop-color:rgb(46,189,182);stop-opacity: 1"/>
</linearGradient>
<path style="stroke: none; stroke-width: 1; stroke-dasharray: none; stroke-linecap: butt; stroke-dashoffset: 0; stroke-linejoin: miter; stroke-miterlimit: 4; fill: url(#SVGID_55_67437); fill-rule: nonzero; opacity: 1;"  paint-order="stroke"  transform=" translate(-149.61350000000002, -170.766)" d="M 151.782 226.206 C 150.08700000000002 216.934 147.752 207.845 144.824 198.96699999999998 L 144.824 198.96699999999998 C 144.229 197.09799999999998 143.59 195.224 142.907 193.397 L 142.907 193.397 C 140.882 187.76 138.615 182.213 136.104 176.796 L 136.104 176.796 C 135.245 174.88299999999998 134.34500000000003 173.009 133.39600000000002 171.13899999999998 L 133.39600000000002 171.13899999999998 C 127.14500000000001 158.49999999999997 119.59100000000001 146.51899999999998 110.89400000000002 135.379 L 110.89400000000002 135.379 C 111.99400000000001 127.86999999999999 113.44900000000003 121.15499999999999 115.29800000000002 115.06099999999999 L 115.29800000000002 115.06099999999999 C 130.336 132.099 142.644 151.257 151.87 171.994 L 151.87 171.994 C 152.707 173.844 153.523 175.693 154.292 177.59 L 154.292 177.59 C 156.51500000000001 182.939 158.52 188.4 160.324 193.945 L 160.324 193.945 C 160.919 195.777 161.49200000000002 197.626 162.042 199.476 L 162.042 199.476 C 162.725 201.766 163.363 204.057 163.981 206.367 L 163.981 206.367 L 170.321 206.082 C 170.697 203.814 171.115 201.566 171.556 199.34199999999998 L 171.556 199.34199999999998 C 176.222 199.213 182.05700000000002 198.98999999999998 188.33300000000003 198.682 L 188.33300000000003 198.682 C 186.35000000000002 207.599 184.98700000000002 216.672 184.21600000000004 225.85299999999998 L 184.21600000000004 225.85299999999998 C 174.81300000000005 226.24699999999999 166.64600000000004 226.47099999999998 163.36300000000003 226.47099999999998 L 163.36300000000003 226.47099999999998 C 161.58000000000004 226.47099999999998 157.59400000000002 226.40399999999997 151.78200000000004 226.206" stroke-linecap="round" />
</g>
</g>
</g>
<g transform="matrix(1.9211538461538462 0 0 1.9211538461538462 640.3227538461542 718.806849559998)" id="text-logo"  >
<g style=""  paint-order="stroke"   >
		<g transform="matrix(1 0 0 1 -5.684342e-14 0)" id="text-logo-path-0"  >
<path style="stroke: rgb(48,187,165); stroke-width: 0; stroke-dasharray: none; stroke-linecap: butt; stroke-dashoffset: 0; stroke-linejoin: miter; stroke-miterlimit: 4; fill: rgb(50,186,153); fill-rule: nonzero; opacity: 1;"  paint-order="stroke"  transform=" translate(-280.84999999999997, 16.08)" d="M 6.29 0 L 6.29 -26.69 L 25.2 0 L 29.33 0 L 29.33 -32.16 L 25.49 -32.16 L 25.49 -5.42 L 6.53 -32.16 L 2.4 -32.16 L 2.45 -32.11 L 2.45 0 Z M 34.61 0 L 57.65 0 L 57.65 -3.36 L 38.45 -3.36 L 38.45 -14.4 L 54.77 -14.4 L 54.77 -17.76 L 38.45 -17.76 L 38.45 -28.8 L 57.65 -28.8 L 57.65 -32.16 L 34.61 -32.16 Z M 78.29 0 L 78.29 -28.8 L 89.81 -28.8 L 89.81 -32.16 L 62.93 -32.16 L 62.93 -28.8 L 74.45 -28.8 L 74.45 0 Z M 98.93 0 L 98.93 -13.39 L 108.19 -13.39 L 116.59 0 L 121.1 0 L 112.66 -13.54 C 117.31 -14.3 120.77 -18.1 120.77 -22.85 C 120.77 -28.08 116.4 -32.16 110.93 -32.16 L 95.09 -32.16 L 95.09 0 Z M 110.93 -16.7 L 98.93 -16.75 L 98.93 -28.8 L 110.69 -28.8 C 114.58 -28.8 117.17 -26.45 117.17 -22.85 C 117.17 -19.2 114.72 -16.8 110.93 -16.7 Z M 149.42 -32.16 L 149.42 -13.06 C 149.42 -7.2 145.06 -3.12 139.87 -3.12 C 134.3 -3.12 130.22 -7.34 130.22 -13.06 L 130.22 -32.16 L 126.38 -32.16 L 126.38 -13.06 C 126.38 -8.11 129.02 -3.79 133.15 -1.34 C 135.22 -0.14 137.42 0.48 139.87 0.48 C 144.67 0.48 149.09 -2.16 151.49 -6.29 C 152.69 -8.35 153.26 -10.61 153.26 -13.06 L 153.26 -32.16 Z M 162.43 0 L 162.43 -26.69 L 181.34 0 L 185.47 0 L 185.47 -32.16 L 181.63 -32.16 L 181.63 -5.42 L 162.67 -32.16 L 158.54 -32.16 L 158.59 -32.11 L 158.59 0 Z M 194.64 0 L 194.64 -26.69 L 213.55 0 L 217.68 0 L 217.68 -32.16 L 213.84 -32.16 L 213.84 -5.42 L 194.88 -32.16 L 190.75 -32.16 L 190.8 -32.11 L 190.8 0 Z M 222.96 0 L 246 0 L 246 -3.36 L 226.8 -3.36 L 226.8 -14.4 L 243.12 -14.4 L 243.12 -17.76 L 226.8 -17.76 L 226.8 -28.8 L 246 -28.8 L 246 -32.16 L 222.96 -32.16 Z M 255.12 0 L 255.12 -13.39 L 264.38 -13.39 L 272.78 0 L 277.3 0 L 268.85 -13.54 C 273.5 -14.3 276.96 -18.1 276.96 -22.85 C 276.96 -28.08 272.59 -32.16 267.12 -32.16 L 251.28 -32.16 L 251.28 0 Z M 267.12 -16.7 L 255.12 -16.75 L 255.12 -28.8 L 266.88 -28.8 C 270.77 -28.8 273.36 -26.45 273.36 -22.85 C 273.36 -19.2 270.91 -16.8 267.12 -16.7 Z M 296.3 -9.98 L 292.66 -8.64 C 294.91 -2.54 299.28 0.48 305.81 0.48 C 312.77 0.48 317.66 -3.5 317.66 -8.88 C 317.66 -12.72 315.26 -14.98 312.34 -16.03 C 310.8 -16.61 308.88 -17.14 306.43 -17.71 C 302.26 -18.67 300.29 -19.3 298.75 -20.78 C 297.94 -21.55 297.55 -22.51 297.55 -23.71 C 297.55 -27.02 300.86 -29.28 305.09 -29.28 C 309.46 -29.28 311.76 -27.5 313.63 -22.8 L 317.18 -24.24 C 314.93 -29.9 311.04 -32.64 305.09 -32.64 C 298.75 -32.64 293.71 -28.9 293.71 -23.71 C 293.71 -19.63 296.3 -17.23 299.33 -16.08 C 300.91 -15.46 302.88 -14.88 305.42 -14.26 C 309.31 -13.3 311.23 -12.82 312.72 -11.47 C 313.44 -10.8 313.82 -9.94 313.82 -8.88 C 313.82 -5.28 310.75 -2.88 305.81 -2.88 C 300.58 -2.88 297.98 -5.28 296.3 -9.98 Z M 339.65 0.53 C 345.79 0.53 351.22 -2.74 354.14 -7.82 C 355.63 -10.37 356.35 -13.1 356.35 -16.08 C 356.35 -22.03 353.18 -27.41 348.05 -30.43 C 345.5 -31.92 342.67 -32.69 339.65 -32.69 C 333.5 -32.69 328.08 -29.47 325.15 -24.38 C 323.66 -21.84 322.94 -19.06 322.94 -16.08 C 322.94 -10.13 326.11 -4.75 331.25 -1.73 C 333.79 -0.24 336.62 0.53 339.65 0.53 Z M 339.65 -3.12 C 334.99 -3.12 330.82 -5.57 328.51 -9.55 C 327.36 -11.52 326.78 -13.73 326.78 -16.08 C 326.78 -20.83 329.23 -25.01 333.22 -27.36 C 335.18 -28.51 337.34 -29.09 339.65 -29.09 C 344.3 -29.09 348.48 -26.59 350.78 -22.61 C 351.94 -20.64 352.51 -18.43 352.51 -16.08 C 352.51 -11.33 350.06 -7.15 346.08 -4.85 C 344.11 -3.7 341.95 -3.12 339.65 -3.12 Z M 361.63 0 L 384.67 0 L 384.67 -3.36 L 365.47 -3.36 L 365.47 -32.16 L 361.63 -32.16 Z M 412.99 -32.16 L 412.99 -13.06 C 412.99 -7.2 408.62 -3.12 403.44 -3.12 C 397.87 -3.12 393.79 -7.34 393.79 -13.06 L 393.79 -32.16 L 389.95 -32.16 L 389.95 -13.06 C 389.95 -8.11 392.59 -3.79 396.72 -1.34 C 398.78 -0.14 400.99 0.48 403.44 0.48 C 408.24 0.48 412.66 -2.16 415.06 -6.29 C 416.26 -8.35 416.83 -10.61 416.83 -13.06 L 416.83 -32.16 Z M 437.47 0 L 437.47 -28.8 L 448.99 -28.8 L 448.99 -32.16 L 422.11 -32.16 L 422.11 -28.8 L 433.63 -28.8 L 433.63 0 Z M 458.11 0 L 458.11 -32.16 L 454.27 -32.16 L 454.27 0 Z M 480.1 0.53 C 486.24 0.53 491.66 -2.74 494.59 -7.82 C 496.08 -10.37 496.8 -13.1 496.8 -16.08 C 496.8 -22.03 493.63 -27.41 488.5 -30.43 C 485.95 -31.92 483.12 -32.69 480.1 -32.69 C 473.95 -32.69 468.53 -29.47 465.6 -24.38 C 464.11 -21.84 463.39 -19.06 463.39 -16.08 C 463.39 -10.13 466.56 -4.75 471.7 -1.73 C 474.24 -0.24 477.07 0.53 480.1 0.53 Z M 480.1 -3.12 C 475.44 -3.12 471.26 -5.57 468.96 -9.55 C 467.81 -11.52 467.23 -13.73 467.23 -16.08 C 467.23 -20.83 469.68 -25.01 473.66 -27.36 C 475.63 -28.51 477.79 -29.09 480.1 -29.09 C 484.75 -29.09 488.93 -26.59 491.23 -22.61 C 492.38 -20.64 492.96 -18.43 492.96 -16.08 C 492.96 -11.33 490.51 -7.15 486.53 -4.85 C 484.56 -3.7 482.4 -3.12 480.1 -3.12 Z M 505.97 0 L 505.97 -26.69 L 524.88 0 L 529.01 0 L 529.01 -32.16 L 525.17 -32.16 L 525.17 -5.42 L 506.21 -32.16 L 502.08 -32.16 L 502.13 -32.11 L 502.13 0 Z M 537.94 -9.98 L 534.29 -8.64 C 536.54 -2.54 540.91 0.48 547.44 0.48 C 554.4 0.48 559.3 -3.5 559.3 -8.88 C 559.3 -12.72 556.9 -14.98 553.97 -16.03 C 552.43 -16.61 550.51 -17.14 548.06 -17.71 C 543.89 -18.67 541.92 -19.3 540.38 -20.78 C 539.57 -21.55 539.18 -22.51 539.18 -23.71 C 539.18 -27.02 542.5 -29.28 546.72 -29.28 C 551.09 -29.28 553.39 -27.5 555.26 -22.8 L 558.82 -24.24 C 556.56 -29.9 552.67 -32.64 546.72 -32.64 C 540.38 -32.64 535.34 -28.9 535.34 -23.71 C 535.34 -19.63 537.94 -17.23 540.96 -16.08 C 542.54 -15.46 544.51 -14.88 547.06 -14.26 C 550.94 -13.3 552.86 -12.82 554.35 -11.47 C 555.07 -10.8 555.46 -9.94 555.46 -8.88 C 555.46 -5.28 552.38 -2.88 547.44 -2.88 C 542.21 -2.88 539.62 -5.28 537.94 -9.98 Z" stroke-linecap="round" />
</g>
</g>
</g>
<g transform="matrix(1.9211538461538462 0 0 1.9211538461538462 640.0571543269232 807.6441925215364)" id="tagline-7dc09672-8b29-4f6b-9e8e-cd5630cf96a5-logo"  >
<g style=""  paint-order="stroke"   >
		<g transform="matrix(1 0 0 1 0 0)" id="tagline-7dc09672-8b29-4f6b-9e8e-cd5630cf96a5-logo-path-0"  >
<path style="stroke: none; stroke-width: 0; stroke-dasharray: none; stroke-linecap: butt; stroke-dashoffset: 0; stroke-linejoin: miter; stroke-miterlimit: 4; fill: rgb(49,186,154); fill-rule: nonzero; opacity: 1;"  paint-order="stroke"  transform=" translate(-203.245, 5.95)" d="M 1.36 -11.9 L 1.36 0 L 7.48 0 C 9.21 0 10.61 -1.39 10.61 -3.13 C 10.61 -4.54 9.69 -5.73 8.43 -6.12 C 9.25 -6.7 9.81 -7.65 9.81 -8.74 C 9.81 -10.49 8.36 -11.9 6.63 -11.9 Z M 6.51 -6.6 L 2.72 -6.6 L 2.72 -10.63 L 6.51 -10.63 C 7.62 -10.63 8.53 -9.72 8.53 -8.62 C 8.53 -7.5 7.62 -6.6 6.51 -6.6 Z M 2.72 -1.28 L 2.72 -5.32 L 7.31 -5.32 C 8.43 -5.32 9.33 -4.42 9.33 -3.3 C 9.33 -2.18 8.43 -1.28 7.31 -1.28 Z M 22.83 0.17 C 25.28 0.17 27.32 -1.87 27.32 -4.35 L 27.32 -11.9 L 25.96 -11.9 L 25.96 -4.27 C 25.96 -2.53 24.53 -1.1 22.83 -1.1 C 21.1 -1.1 19.67 -2.53 19.67 -4.27 L 19.67 -11.9 L 18.31 -11.9 L 18.31 -4.35 C 18.31 -1.87 20.35 0.17 22.83 0.17 Z M 35.73 -11.9 L 35.73 0 L 37.09 0 L 37.09 -11.9 Z M 45.71 -11.9 L 45.71 0 L 54.04 0 L 54.04 -1.28 L 47.07 -1.28 L 47.07 -11.9 Z M 61.8 -11.9 L 61.8 0 L 65.37 0 C 68.73 0 71.48 -2.58 71.48 -5.95 C 71.48 -9.32 68.73 -11.9 65.37 -11.9 Z M 63.16 -1.28 L 63.16 -10.63 L 65.37 -10.63 C 68.14 -10.63 70.13 -8.81 70.13 -5.95 C 70.13 -3.09 68.14 -1.28 65.37 -1.28 Z M 79.48 -11.9 L 79.48 0 L 80.84 0 L 80.84 -11.9 Z M 89.45 -11.9 L 89.45 0 L 90.81 0 L 90.81 -9.38 L 98.46 0 L 99.31 0 L 99.31 -11.9 L 97.95 -11.9 L 97.95 -2.77 L 90.47 -11.9 Z M 113.42 0.17 C 115.07 0.17 116.57 -0.49 117.69 -1.58 L 117.69 0 L 119.05 0 L 119.05 -5.87 L 113.61 -5.87 L 113.61 -4.59 L 117.69 -4.59 L 117.69 -3.71 C 116.93 -2.18 115.35 -1.1 113.42 -1.1 C 110.65 -1.1 108.66 -3.09 108.66 -5.95 C 108.66 -8.81 110.65 -10.79 113.42 -10.79 C 114.95 -10.79 116.25 -10.18 117.1 -9.16 L 118.1 -9.89 C 116.98 -11.22 115.29 -12.07 113.42 -12.07 C 110.06 -12.07 107.3 -9.32 107.3 -5.95 C 107.3 -2.58 110.06 0.17 113.42 0.17 Z M 139.2 0 L 141.03 0 L 144.23 -9.72 L 147.42 0 L 149.26 0 L 152.83 -11.9 L 151.4 -11.9 L 148.33 -1.62 L 144.94 -11.9 L 143.51 -11.9 L 140.13 -1.62 L 137.05 -11.9 L 135.63 -11.9 Z M 160.58 -11.9 L 160.58 0 L 168.91 0 L 168.91 -1.28 L 161.94 -1.28 L 161.94 -5.32 L 167.21 -5.32 L 167.21 -6.6 L 161.94 -6.6 L 161.94 -10.63 L 168.91 -10.63 L 168.91 -11.9 Z M 176.82 -11.9 L 176.82 0 L 182.94 0 C 184.67 0 186.07 -1.39 186.07 -3.13 C 186.07 -4.54 185.15 -5.73 183.89 -6.12 C 184.71 -6.7 185.27 -7.65 185.27 -8.74 C 185.27 -10.49 183.82 -11.9 182.09 -11.9 Z M 181.97 -6.6 L 178.18 -6.6 L 178.18 -10.63 L 181.97 -10.63 C 183.07 -10.63 183.99 -9.72 183.99 -8.62 C 183.99 -7.5 183.07 -6.6 181.97 -6.6 Z M 178.18 -1.28 L 178.18 -5.32 L 182.77 -5.32 C 183.89 -5.32 184.79 -4.42 184.79 -3.3 C 184.79 -2.18 183.89 -1.28 182.77 -1.28 Z M 203.73 -3.25 L 202.5 -2.7 C 203.25 -1.09 204.94 0.17 206.99 0.17 C 209.85 0.17 211.45 -1.67 211.45 -3.3 C 211.45 -5.61 208.96 -6.21 207.06 -6.73 C 205.34 -7.21 204.05 -7.62 204.05 -8.81 C 204.05 -9.98 205.48 -10.79 206.7 -10.79 C 208.78 -10.78 209.36 -9.84 209.73 -8.91 L 210.99 -9.38 C 210.56 -10.46 209.63 -12.07 206.7 -12.07 C 204.92 -12.05 202.69 -10.86 202.69 -8.81 C 202.69 -6.66 204.85 -6.02 206.69 -5.51 C 208.59 -4.98 210.09 -4.61 210.09 -3.3 C 210.09 -2.31 209.02 -1.1 206.99 -1.1 C 205.53 -1.1 204.31 -2.01 203.73 -3.25 Z M 219.32 -11.9 L 219.32 0 L 227.65 0 L 227.65 -1.28 L 220.68 -1.28 L 220.68 -5.32 L 225.95 -5.32 L 225.95 -6.6 L 220.68 -6.6 L 220.68 -10.63 L 227.65 -10.63 L 227.65 -11.9 Z M 240.53 0.17 C 243.05 0.17 245.24 -1.38 246.16 -3.57 L 244.75 -3.57 C 243.98 -2.04 242.45 -1.1 240.53 -1.1 C 237.76 -1.1 235.77 -3.09 235.77 -5.95 C 235.77 -8.81 237.76 -10.79 240.53 -10.79 C 242.06 -10.79 243.36 -10.18 244.21 -9.16 L 245.21 -9.89 C 244.09 -11.22 242.4 -12.07 240.53 -12.07 C 237.17 -12.07 234.41 -9.32 234.41 -5.95 C 234.41 -2.58 237.17 0.17 240.53 0.17 Z M 258.21 0.17 C 260.66 0.17 262.7 -1.87 262.7 -4.35 L 262.7 -11.9 L 261.34 -11.9 L 261.34 -4.27 C 261.34 -2.53 259.91 -1.1 258.21 -1.1 C 256.48 -1.1 255.05 -2.53 255.05 -4.27 L 255.05 -11.9 L 253.69 -11.9 L 253.69 -4.35 C 253.69 -1.87 255.73 0.17 258.21 0.17 Z M 271.12 0 L 272.48 0 L 272.48 -4.98 L 274.58 -4.98 C 277.53 -4.96 278.58 -2.74 278.58 0 L 279.94 0 C 279.94 -2.11 279.31 -4.18 277.71 -5.34 C 278.83 -5.9 279.65 -7.09 279.65 -8.47 C 279.65 -10.34 278.09 -11.9 276.22 -11.9 L 271.12 -11.9 Z M 272.48 -6.26 L 272.48 -10.63 L 276.13 -10.63 C 277.32 -10.63 278.31 -9.64 278.31 -8.45 C 278.31 -7.24 277.32 -6.26 276.13 -6.26 Z M 287.95 -11.9 L 287.95 0 L 289.31 0 L 289.31 -11.9 Z M 297.93 -11.9 L 297.93 0 L 299.29 0 L 299.29 -9.38 L 306.94 0 L 307.79 0 L 307.79 -11.9 L 306.43 -11.9 L 306.43 -2.77 L 298.94 -11.9 Z M 321.89 0.17 C 323.54 0.17 325.04 -0.49 326.16 -1.58 L 326.16 0 L 327.52 0 L 327.52 -5.87 L 322.08 -5.87 L 322.08 -4.59 L 326.16 -4.59 L 326.16 -3.71 C 325.4 -2.18 323.82 -1.1 321.89 -1.1 C 319.12 -1.1 317.13 -3.09 317.13 -5.95 C 317.13 -8.81 319.12 -10.79 321.89 -10.79 C 323.42 -10.79 324.72 -10.18 325.57 -9.16 L 326.57 -9.89 C 325.45 -11.22 323.76 -12.07 321.89 -12.07 C 318.53 -12.07 315.77 -9.32 315.77 -5.95 C 315.77 -2.58 318.53 0.17 321.89 0.17 Z M 347.84 0 L 349.2 0 L 349.2 -10.63 L 352.94 -10.63 L 352.94 -11.9 L 344.1 -11.9 L 344.1 -10.63 L 347.84 -10.63 Z M 360.69 -11.9 L 360.69 0 L 369.02 0 L 369.02 -1.28 L 362.05 -1.28 L 362.05 -5.32 L 367.32 -5.32 L 367.32 -6.6 L 362.05 -6.6 L 362.05 -10.63 L 369.02 -10.63 L 369.02 -11.9 Z M 381.91 0.17 C 384.42 0.17 386.61 -1.38 387.53 -3.57 L 386.12 -3.57 C 385.36 -2.04 383.83 -1.1 381.91 -1.1 C 379.13 -1.1 377.15 -3.09 377.15 -5.95 C 377.15 -8.81 379.13 -10.79 381.91 -10.79 C 383.44 -10.79 384.73 -10.18 385.58 -9.16 L 386.58 -9.89 C 385.46 -11.22 383.78 -12.07 381.91 -12.07 C 378.54 -12.07 375.79 -9.32 375.79 -5.95 C 375.79 -2.58 378.54 0.17 381.91 0.17 Z M 395.27 -11.9 L 395.27 0 L 396.63 0 L 396.63 -5.32 L 403.77 -5.32 L 403.77 0 L 405.13 0 L 405.13 -11.9 L 403.77 -11.9 L 403.77 -6.6 L 396.63 -6.6 L 396.63 -11.9 Z" stroke-linecap="round" />
</g>
</g>
</g>
</svg>